<?xml version="1.0" encoding="utf-8"?>
<!-- Generator: Adobe Illustrator 16.0.0, SVG Export Plug-In . SVG Version: 6.00 Build 0)  -->
<!DOCTYPE svg PUBLIC "-//W3C//DTD SVG 1.1//EN" "http://www.w3.org/Graphics/SVG/1.1/DTD/svg11.dtd">
<svg version="1.1" id="Layer_1" xmlns="http://www.w3.org/2000/svg" xmlns:xlink="http://www.w3.org/1999/xlink" x="0px" y="0px"
	 width="952.064px" height="1103.427px" viewBox="0 0 952.064 1103.427" enable-background="new 0 0 952.064 1103.427"
	 xml:space="preserve">
<rect y="650.573" fill="#00AEEF" width="952.064" height="226.427"/>
<rect y="877" fill="#00AEEF" width="952.064" height="226.427"/>
<g>
	<g>
		<path d="M199.646,513.731c0,5.109-4.143,9.251-9.252,9.251H41.898c-5.109,0-9.251-4.142-9.251-9.251V365.236
			c0-5.109,4.142-9.252,9.251-9.252h148.496c5.109,0,9.252,4.143,9.252,9.252V513.731z"/>
		<g>
			<path stroke="#FFFFFF" stroke-width="2" stroke-miterlimit="10" d="M127.557,437.34c-0.225-3.854-1.055-7.544-2.391-10.982
				c-5.262-13.547-18.415-23.154-33.821-23.154c-20.036,0-36.28,16.244-36.28,36.281s16.244,36.279,36.28,36.279
				c15.407,0,28.562-9.607,33.821-23.154c1.336-3.438,2.166-7.129,2.391-10.982c0.043-0.709,0.068-1.422,0.068-2.143
				S127.6,438.05,127.557,437.34z"/>
			<path fill="#FFFFFF" d="M85.034,431.894l12.476,23.89l6.111-9.197c1.873-2.816,4.91-2.816,6.785,0l8.084,12.162
				c3.865-5.438,6.146-12.082,6.146-19.264c0-18.388-14.904-33.293-33.292-33.293s-33.292,14.905-33.292,33.293
				c0,6.543,1.895,12.639,5.154,17.785l13.252-25.376C78.826,427.361,82.666,427.361,85.034,431.894z M107.014,432.68
				c2.291,0,4.148,1.856,4.148,4.148c0,2.291-1.857,4.148-4.148,4.148s-4.148-1.857-4.148-4.148
				C102.865,434.536,104.723,432.68,107.014,432.68z"/>
			<g>
				<path fill="#FFFFFF" d="M155.801,426.708c2.518,2.378,5.982,3.733,9.707,3.444c6.998-0.545,12.227-6.658,11.682-13.656
					c-0.543-6.994-6.656-12.227-13.654-11.682c-6.262,0.487-11.096,5.438-11.656,11.487l-26.713,10.056
					c1.336,3.438,2.166,7.129,2.391,10.982L155.801,426.708z"/>
				<path fill="#FFFFFF" d="M165.506,448.814c-3.723-0.289-7.188,1.068-9.705,3.445l-28.244-10.633
					c-0.225,3.854-1.055,7.545-2.391,10.982l26.713,10.057c0.559,6.049,5.395,11,11.656,11.486
					c6.996,0.545,13.109-4.686,13.654-11.682C177.734,455.473,172.506,449.361,165.506,448.814z"/>
			</g>
		</g>
	</g>
	<g>
		<radialGradient id="SVGID_1_" cx="90.2129" cy="557.4531" r="11.9286" gradientUnits="userSpaceOnUse">
			<stop  offset="0" style="stop-color:#867278"/>
			<stop  offset="0.5" style="stop-color:#5C4A56"/>
			<stop  offset="1" style="stop-color:#433545"/>
		</radialGradient>
		<path fill="url(#SVGID_1_)" d="M80.521,571.261v-27.616h8.252c1.842,0,3.412,0.143,4.71,0.428
			c1.323,0.285,2.465,0.766,3.426,1.439c0.96,0.676,1.7,1.59,2.219,2.744c0.519,1.156,0.777,2.563,0.777,4.225
			c0,1.361-0.259,2.581-0.777,3.658s-1.239,1.998-2.161,2.764c-0.934,0.779-2.031,1.369-3.289,1.771
			c-1.284,0.415-2.614,0.623-3.989,0.623h-2.374v9.964H80.521z M87.314,549.502v5.936h1.946c1.245,0,2.205-0.259,2.88-0.777
			c0.662-0.507,0.992-1.246,0.992-2.219c0-0.947-0.33-1.674-0.992-2.18c-0.675-0.506-1.635-0.76-2.88-0.76H87.314z"/>
		<radialGradient id="SVGID_2_" cx="104.2646" cy="557.4629" r="10.0461" gradientUnits="userSpaceOnUse">
			<stop  offset="0" style="stop-color:#867278"/>
			<stop  offset="0.5" style="stop-color:#5C4A56"/>
			<stop  offset="1" style="stop-color:#433545"/>
		</radialGradient>
		<path fill="url(#SVGID_2_)" d="M100.878,543.664h6.772v27.597l-6.772-0.019V543.664z"/>
		<radialGradient id="SVGID_3_" cx="120.3213" cy="557.4238" r="13.1404" gradientUnits="userSpaceOnUse">
			<stop  offset="0" style="stop-color:#867278"/>
			<stop  offset="0.5" style="stop-color:#5C4A56"/>
			<stop  offset="1" style="stop-color:#433545"/>
		</radialGradient>
		<path fill="url(#SVGID_3_)" d="M132.018,567.485c-0.883,0.96-1.869,1.778-2.958,2.452c-2.076,1.285-4.347,1.927-6.812,1.927
			c-2.452,0-4.724-0.642-6.813-1.927c-2.102-1.297-3.763-3.042-4.982-5.235c-1.22-2.206-1.829-4.626-1.829-7.259
			c0-2.647,0.609-5.073,1.829-7.279c1.22-2.193,2.881-3.944,4.982-5.255c2.089-1.284,4.36-1.927,6.813-1.927
			c2.465,0,4.735,0.643,6.812,1.927c1.089,0.675,2.063,1.479,2.92,2.413l-4.458,4.613c-0.558-0.662-1.096-1.161-1.614-1.499
			c-1.143-0.766-2.362-1.147-3.659-1.147c-1.298,0-2.519,0.382-3.659,1.147c-1.115,0.766-2.005,1.778-2.666,3.036
			c-0.649,1.271-0.973,2.595-0.973,3.971c0,1.375,0.33,2.698,0.991,3.97c0.662,1.259,1.551,2.271,2.666,3.036
			c1.117,0.766,2.33,1.148,3.641,1.148c1.31,0,2.523-0.383,3.64-1.148c0.597-0.402,1.154-0.928,1.673-1.576L132.018,567.485z"/>
		<radialGradient id="SVGID_4_" cx="143.1602" cy="557.4531" r="12.1258" gradientUnits="userSpaceOnUse">
			<stop  offset="0" style="stop-color:#867278"/>
			<stop  offset="0.5" style="stop-color:#5C4A56"/>
			<stop  offset="1" style="stop-color:#433545"/>
		</radialGradient>
		<path fill="url(#SVGID_4_)" d="M139.999,549.93h-5.314l-1.693-6.285h18.704l1.635,6.285h-6.559v21.331h-6.772V549.93z"/>
		<radialGradient id="SVGID_5_" cx="68.4937" cy="599.8711" r="12.0272" gradientUnits="userSpaceOnUse">
			<stop  offset="0" style="stop-color:#867278"/>
			<stop  offset="0.5" style="stop-color:#5C4A56"/>
			<stop  offset="1" style="stop-color:#433545"/>
		</radialGradient>
		<path fill="url(#SVGID_5_)" d="M73.534,593.361c-0.805-0.766-1.512-1.305-2.121-1.615c-0.649-0.338-1.401-0.507-2.258-0.507
			c-0.636,0-1.232,0.201-1.791,0.603c-0.584,0.403-0.876,0.936-0.876,1.598c0,0.934,0.637,1.673,1.908,2.218
			c1.298,0.558,2.627,1.097,3.989,1.615c1.376,0.545,2.569,1.408,3.581,2.589c0.999,1.193,1.499,2.945,1.499,5.255
			c0,2.958-0.889,5.229-2.667,6.812c-1.764,1.596-4.016,2.394-6.753,2.394c-1.584,0-3.114-0.271-4.593-0.816
			c-1.493-0.546-2.803-1.363-3.932-2.453l3.659-5.216c1.168,1.479,2.705,2.219,4.612,2.219c0.766,0,1.498-0.214,2.2-0.643
			c0.688-0.415,1.03-1.024,1.03-1.829c0-0.946-0.642-1.7-1.927-2.258c-0.57-0.246-1.233-0.524-1.984-0.837L66.1,602.08l-1.032-0.428
			c-1.388-0.572-2.574-1.435-3.561-2.589c-0.986-1.142-1.479-2.849-1.479-5.119c0-1.738,0.428-3.257,1.284-4.554
			c0.83-1.285,1.939-2.271,3.328-2.959c1.35-0.674,2.797-1.012,4.341-1.012c1.428,0,2.827,0.273,4.204,0.818
			c1.401,0.57,2.627,1.361,3.678,2.373L73.534,593.361z"/>
		<radialGradient id="SVGID_6_" cx="89.5913" cy="599.8711" r="12.5502" gradientUnits="userSpaceOnUse">
			<stop  offset="0" style="stop-color:#867278"/>
			<stop  offset="0.5" style="stop-color:#5C4A56"/>
			<stop  offset="1" style="stop-color:#433545"/>
		</radialGradient>
		<path fill="url(#SVGID_6_)" d="M85.213,613.679h-6.773v-27.616h6.773v10.081h8.757v-10.081h6.773v27.616H93.97v-11.287h-8.757
			V613.679z"/>
		<radialGradient id="SVGID_7_" cx="116.9253" cy="599.6758" r="14.6187" gradientUnits="userSpaceOnUse">
			<stop  offset="0" style="stop-color:#867278"/>
			<stop  offset="0.5" style="stop-color:#5C4A56"/>
			<stop  offset="1" style="stop-color:#433545"/>
		</radialGradient>
		<path fill="url(#SVGID_7_)" d="M122.443,608.774h-11.036l-2.704,4.904h-6.987l15.22-28.005l15.199,28.005h-6.986L122.443,608.774z
			 M119.641,603.676l-2.705-4.904l-2.725,4.904H119.641z"/>
		<radialGradient id="SVGID_8_" cx="143.686" cy="599.8613" r="12.2942" gradientUnits="userSpaceOnUse">
			<stop  offset="0" style="stop-color:#867278"/>
			<stop  offset="0.5" style="stop-color:#5C4A56"/>
			<stop  offset="1" style="stop-color:#433545"/>
		</radialGradient>
		<path fill="url(#SVGID_8_)" d="M133.108,613.621v-27.559h7.688c2.18,0,4.107,0.285,5.78,0.855
			c1.647,0.559,2.939,1.473,3.873,2.744c0.922,1.272,1.382,2.914,1.382,4.925c0,1.479-0.402,2.894-1.206,4.243
			c-0.792,1.336-1.862,2.258-3.212,2.764l6.851,12.066h-7.921l-6.383-12.379h-0.079v12.34H133.108z M139.881,599.647
			c1.142,0,2.089-0.137,2.842-0.409c0.727-0.246,1.305-0.682,1.732-1.304c0.402-0.597,0.604-1.369,0.604-2.315
			c0-1.428-0.428-2.4-1.284-2.92c-0.87-0.519-2.168-0.779-3.894-0.779V599.647z"/>
		<radialGradient id="SVGID_9_" cx="164.0044" cy="599.8711" r="11.5657" gradientUnits="userSpaceOnUse">
			<stop  offset="0" style="stop-color:#867278"/>
			<stop  offset="0.5" style="stop-color:#5C4A56"/>
			<stop  offset="1" style="stop-color:#433545"/>
		</radialGradient>
		<path fill="url(#SVGID_9_)" d="M172.772,613.679h-17.536v-27.616h17.536v5.857H162.01v4.788h5.469l1.576,5.819h-7.045v5.333
			h10.763V613.679z"/>
	</g>
</g>
<g>
	<path fill="#00AEEF" d="M199.646,185.248c0,5.109-4.143,9.251-9.252,9.251H41.898c-5.109,0-9.251-4.142-9.251-9.251V36.752
		c0-5.109,4.142-9.251,9.251-9.251h148.496c5.109,0,9.252,4.142,9.252,9.251V185.248z"/>
	<g>
		<radialGradient id="SVGID_10_" cx="91.3447" cy="111" r="37.5608" gradientUnits="userSpaceOnUse">
			<stop  offset="0" style="stop-color:#867278"/>
			<stop  offset="0.5" style="stop-color:#5C4A56"/>
			<stop  offset="1" style="stop-color:#433545"/>
		</radialGradient>
		<path fill="none" stroke="url(#SVGID_10_)" stroke-width="2.561" stroke-miterlimit="10" d="M127.557,108.856
			c-0.225-3.854-1.055-7.544-2.391-10.982c-5.262-13.547-18.415-23.155-33.821-23.155c-20.036,0-36.28,16.244-36.28,36.281
			s16.244,36.28,36.28,36.28c15.407,0,28.562-9.607,33.821-23.154c1.336-3.438,2.166-7.129,2.391-10.982
			c0.043-0.71,0.068-1.423,0.068-2.144C127.625,110.28,127.6,109.566,127.557,108.856z"/>
		<radialGradient id="SVGID_11_" cx="91.3447" cy="103.9863" r="29.9911" gradientUnits="userSpaceOnUse">
			<stop  offset="0" style="stop-color:#867278"/>
			<stop  offset="0.5" style="stop-color:#5C4A56"/>
			<stop  offset="1" style="stop-color:#433545"/>
		</radialGradient>
		<path fill="url(#SVGID_11_)" d="M85.034,103.41l12.476,23.889l6.111-9.196c1.873-2.817,4.91-2.817,6.785,0l8.084,12.162
			c3.865-5.438,6.146-12.083,6.146-19.265c0-18.387-14.904-33.293-33.292-33.293S58.053,92.613,58.053,111
			c0,6.543,1.895,12.639,5.154,17.785l13.252-25.375C78.826,98.877,82.666,98.877,85.034,103.41z M107.014,104.196
			c2.291,0,4.148,1.856,4.148,4.148c0,2.292-1.857,4.149-4.148,4.149s-4.148-1.857-4.148-4.149
			C102.865,106.053,104.723,104.196,107.014,104.196z"/>
		<g>
			<radialGradient id="SVGID_12_" cx="151.1973" cy="92.5742" r="21.711" gradientUnits="userSpaceOnUse">
				<stop  offset="0" style="stop-color:#867278"/>
				<stop  offset="0.5" style="stop-color:#5C4A56"/>
				<stop  offset="1" style="stop-color:#433545"/>
			</radialGradient>
			<path fill="url(#SVGID_12_)" d="M155.801,98.225c2.518,2.378,5.982,3.734,9.707,3.444c6.998-0.545,12.227-6.657,11.682-13.656
				c-0.543-6.995-6.656-12.227-13.654-11.681c-6.262,0.487-11.096,5.438-11.656,11.487l-26.713,10.056
				c1.336,3.438,2.166,7.128,2.391,10.982L155.801,98.225z"/>
			<radialGradient id="SVGID_13_" cx="151.1973" cy="129.4263" r="21.711" gradientUnits="userSpaceOnUse">
				<stop  offset="0" style="stop-color:#867278"/>
				<stop  offset="0.5" style="stop-color:#5C4A56"/>
				<stop  offset="1" style="stop-color:#433545"/>
			</radialGradient>
			<path fill="url(#SVGID_13_)" d="M165.506,120.332c-3.723-0.29-7.188,1.067-9.705,3.444l-28.244-10.632
				c-0.225,3.854-1.055,7.544-2.391,10.982l26.713,10.057c0.559,6.048,5.395,11,11.656,11.486
				c6.996,0.545,13.109-4.687,13.654-11.682C177.734,126.99,172.506,120.877,165.506,120.332z"/>
		</g>
	</g>
</g>
<g>
	<radialGradient id="SVGID_14_" cx="89.4346" cy="228.9688" r="11.9292" gradientUnits="userSpaceOnUse">
		<stop  offset="0" style="stop-color:#867278"/>
		<stop  offset="0.5" style="stop-color:#5C4A56"/>
		<stop  offset="1" style="stop-color:#433545"/>
	</radialGradient>
	<path fill="url(#SVGID_14_)" d="M79.743,242.777v-27.617h8.252c1.842,0,3.412,0.143,4.71,0.428c1.323,0.286,2.465,0.766,3.426,1.44
		c0.96,0.675,1.7,1.589,2.219,2.744c0.519,1.155,0.777,2.563,0.777,4.224c0,1.362-0.259,2.582-0.777,3.659s-1.239,1.999-2.161,2.764
		c-0.934,0.779-2.031,1.369-3.289,1.771c-1.284,0.415-2.614,0.623-3.989,0.623h-2.374v9.964H79.743z M86.536,221.019v5.936h1.946
		c1.245,0,2.205-0.259,2.88-0.778c0.662-0.506,0.992-1.246,0.992-2.219c0-0.947-0.33-1.674-0.992-2.18
		c-0.675-0.506-1.635-0.759-2.88-0.759H86.536z"/>
	<radialGradient id="SVGID_15_" cx="103.4863" cy="228.9785" r="10.0467" gradientUnits="userSpaceOnUse">
		<stop  offset="0" style="stop-color:#867278"/>
		<stop  offset="0.5" style="stop-color:#5C4A56"/>
		<stop  offset="1" style="stop-color:#433545"/>
	</radialGradient>
	<path fill="url(#SVGID_15_)" d="M100.1,215.18h6.772v27.597l-6.772-0.019V215.18z"/>
	<radialGradient id="SVGID_16_" cx="119.543" cy="228.9399" r="13.1407" gradientUnits="userSpaceOnUse">
		<stop  offset="0" style="stop-color:#867278"/>
		<stop  offset="0.5" style="stop-color:#5C4A56"/>
		<stop  offset="1" style="stop-color:#433545"/>
	</radialGradient>
	<path fill="url(#SVGID_16_)" d="M131.24,239.002c-0.883,0.96-1.869,1.778-2.958,2.452c-2.076,1.285-4.347,1.927-6.812,1.927
		c-2.452,0-4.724-0.642-6.813-1.927c-2.102-1.297-3.763-3.042-4.982-5.235c-1.22-2.206-1.829-4.625-1.829-7.259
		c0-2.647,0.609-5.073,1.829-7.279c1.22-2.193,2.881-3.944,4.982-5.255c2.089-1.285,4.36-1.927,6.813-1.927
		c2.465,0,4.735,0.642,6.812,1.927c1.089,0.675,2.063,1.479,2.92,2.413l-4.458,4.613c-0.558-0.662-1.096-1.161-1.614-1.499
		c-1.143-0.766-2.362-1.148-3.659-1.148c-1.298,0-2.519,0.382-3.659,1.148c-1.115,0.766-2.005,1.778-2.666,3.036
		c-0.649,1.271-0.973,2.595-0.973,3.97s0.33,2.699,0.991,3.97c0.662,1.258,1.551,2.271,2.666,3.036
		c1.117,0.766,2.33,1.148,3.641,1.148c1.31,0,2.523-0.383,3.64-1.148c0.597-0.402,1.154-0.928,1.673-1.576L131.24,239.002z"/>
	<radialGradient id="SVGID_17_" cx="142.3818" cy="228.9688" r="12.1263" gradientUnits="userSpaceOnUse">
		<stop  offset="0" style="stop-color:#867278"/>
		<stop  offset="0.5" style="stop-color:#5C4A56"/>
		<stop  offset="1" style="stop-color:#433545"/>
	</radialGradient>
	<path fill="url(#SVGID_17_)" d="M139.22,221.447h-5.314l-1.693-6.286h18.704l1.635,6.286h-6.559v21.331h-6.772V221.447z"/>
	<radialGradient id="SVGID_18_" cx="68.4937" cy="271.3872" r="12.0275" gradientUnits="userSpaceOnUse">
		<stop  offset="0" style="stop-color:#867278"/>
		<stop  offset="0.5" style="stop-color:#5C4A56"/>
		<stop  offset="1" style="stop-color:#433545"/>
	</radialGradient>
	<path fill="url(#SVGID_18_)" d="M73.534,264.877c-0.805-0.765-1.512-1.304-2.121-1.615c-0.649-0.338-1.401-0.506-2.258-0.506
		c-0.636,0-1.232,0.201-1.791,0.603c-0.584,0.403-0.876,0.935-0.876,1.597c0,0.934,0.637,1.673,1.908,2.218
		c1.298,0.558,2.627,1.097,3.989,1.615c1.376,0.545,2.569,1.408,3.581,2.588c0.999,1.194,1.499,2.946,1.499,5.255
		c0,2.958-0.889,5.229-2.667,6.812c-1.764,1.596-4.016,2.394-6.753,2.394c-1.584,0-3.114-0.271-4.593-0.816
		c-1.493-0.546-2.803-1.363-3.932-2.453l3.659-5.215c1.168,1.479,2.705,2.218,4.612,2.218c0.766,0,1.498-0.214,2.2-0.642
		c0.688-0.416,1.03-1.025,1.03-1.83c0-0.947-0.642-1.7-1.927-2.258c-0.57-0.246-1.233-0.525-1.984-0.837l-1.013-0.408l-1.032-0.428
		c-1.388-0.571-2.574-1.434-3.561-2.588c-0.986-1.142-1.479-2.848-1.479-5.119c0-1.738,0.428-3.256,1.284-4.554
		c0.83-1.284,1.939-2.271,3.328-2.958c1.35-0.674,2.797-1.012,4.341-1.012c1.428,0,2.827,0.273,4.204,0.818
		c1.401,0.571,2.627,1.362,3.678,2.374L73.534,264.877z"/>
	<radialGradient id="SVGID_19_" cx="89.5913" cy="271.3867" r="12.5507" gradientUnits="userSpaceOnUse">
		<stop  offset="0" style="stop-color:#867278"/>
		<stop  offset="0.5" style="stop-color:#5C4A56"/>
		<stop  offset="1" style="stop-color:#433545"/>
	</radialGradient>
	<path fill="url(#SVGID_19_)" d="M85.213,285.195h-6.773v-27.617h6.773v10.082h8.757v-10.082h6.773v27.617H93.97v-11.287h-8.757
		V285.195z"/>
	<radialGradient id="SVGID_20_" cx="116.9253" cy="271.1924" r="14.6187" gradientUnits="userSpaceOnUse">
		<stop  offset="0" style="stop-color:#867278"/>
		<stop  offset="0.5" style="stop-color:#5C4A56"/>
		<stop  offset="1" style="stop-color:#433545"/>
	</radialGradient>
	<path fill="url(#SVGID_20_)" d="M122.443,280.291h-11.036l-2.704,4.904h-6.987l15.22-28.005l15.199,28.005h-6.986L122.443,280.291z
		 M119.641,275.192l-2.705-4.904l-2.725,4.904H119.641z"/>
	<radialGradient id="SVGID_21_" cx="143.686" cy="271.3779" r="12.2942" gradientUnits="userSpaceOnUse">
		<stop  offset="0" style="stop-color:#867278"/>
		<stop  offset="0.5" style="stop-color:#5C4A56"/>
		<stop  offset="1" style="stop-color:#433545"/>
	</radialGradient>
	<path fill="url(#SVGID_21_)" d="M133.108,285.138v-27.559h7.688c2.18,0,4.107,0.286,5.78,0.856
		c1.647,0.558,2.939,1.473,3.873,2.744c0.922,1.272,1.382,2.913,1.382,4.924c0,1.479-0.402,2.893-1.206,4.243
		c-0.792,1.336-1.862,2.258-3.212,2.764l6.851,12.067h-7.921l-6.383-12.378h-0.079v12.339H133.108z M139.881,271.164
		c1.142,0,2.089-0.137,2.842-0.409c0.727-0.246,1.305-0.681,1.732-1.304c0.402-0.597,0.604-1.369,0.604-2.316
		c0-1.427-0.428-2.4-1.284-2.92c-0.87-0.518-2.168-0.778-3.894-0.778V271.164z"/>
	<radialGradient id="SVGID_22_" cx="164.0044" cy="271.3867" r="11.5662" gradientUnits="userSpaceOnUse">
		<stop  offset="0" style="stop-color:#867278"/>
		<stop  offset="0.5" style="stop-color:#5C4A56"/>
		<stop  offset="1" style="stop-color:#433545"/>
	</radialGradient>
	<path fill="url(#SVGID_22_)" d="M172.772,285.195h-17.536v-27.617h17.536v5.858H162.01v4.788h5.469l1.576,5.82h-7.045v5.333h10.763
		V285.195z"/>
</g>
<g>
	<g>
		<path fill="#00AEEF" d="M645.646,185.248c0,5.109-4.143,9.251-9.252,9.251H487.898c-5.109,0-9.251-4.142-9.251-9.251V36.752
			c0-5.109,4.142-9.251,9.251-9.251h148.496c5.109,0,9.252,4.142,9.252,9.251V185.248z"/>
		<g>
			<radialGradient id="SVGID_23_" cx="537.3447" cy="111" r="37.5608" gradientUnits="userSpaceOnUse">
				<stop  offset="0" style="stop-color:#867278"/>
				<stop  offset="0.5" style="stop-color:#5C4A56"/>
				<stop  offset="1" style="stop-color:#433545"/>
			</radialGradient>
			<path fill="none" stroke="url(#SVGID_23_)" stroke-width="2.561" stroke-miterlimit="10" d="M573.557,108.856
				c-0.225-3.854-1.055-7.544-2.391-10.982c-5.262-13.547-18.415-23.155-33.821-23.155c-20.036,0-36.28,16.244-36.28,36.281
				s16.244,36.28,36.28,36.28c15.407,0,28.562-9.607,33.821-23.154c1.336-3.438,2.166-7.129,2.391-10.982
				c0.043-0.71,0.068-1.423,0.068-2.144C573.625,110.28,573.6,109.566,573.557,108.856z"/>
			<radialGradient id="SVGID_24_" cx="537.3447" cy="103.9863" r="29.9911" gradientUnits="userSpaceOnUse">
				<stop  offset="0" style="stop-color:#867278"/>
				<stop  offset="0.5" style="stop-color:#5C4A56"/>
				<stop  offset="1" style="stop-color:#433545"/>
			</radialGradient>
			<path fill="url(#SVGID_24_)" d="M531.034,103.41l12.476,23.889l6.111-9.196c1.873-2.817,4.91-2.817,6.785,0l8.084,12.162
				c3.865-5.438,6.146-12.083,6.146-19.265c0-18.387-14.904-33.293-33.292-33.293S504.053,92.613,504.053,111
				c0,6.543,1.895,12.639,5.154,17.785l13.252-25.375C524.826,98.877,528.666,98.877,531.034,103.41z M553.014,104.196
				c2.291,0,4.148,1.856,4.148,4.148c0,2.292-1.857,4.149-4.148,4.149s-4.148-1.857-4.148-4.149
				C548.865,106.053,550.723,104.196,553.014,104.196z"/>
			<g>
				<radialGradient id="SVGID_25_" cx="597.1973" cy="92.5742" r="21.711" gradientUnits="userSpaceOnUse">
					<stop  offset="0" style="stop-color:#867278"/>
					<stop  offset="0.5" style="stop-color:#5C4A56"/>
					<stop  offset="1" style="stop-color:#433545"/>
				</radialGradient>
				<path fill="url(#SVGID_25_)" d="M601.801,98.225c2.518,2.378,5.982,3.734,9.707,3.444c6.998-0.545,12.227-6.657,11.682-13.656
					c-0.543-6.995-6.656-12.227-13.654-11.681c-6.262,0.487-11.096,5.438-11.656,11.487l-26.713,10.056
					c1.336,3.438,2.166,7.128,2.391,10.982L601.801,98.225z"/>
				<radialGradient id="SVGID_26_" cx="597.1973" cy="129.4263" r="21.711" gradientUnits="userSpaceOnUse">
					<stop  offset="0" style="stop-color:#867278"/>
					<stop  offset="0.5" style="stop-color:#5C4A56"/>
					<stop  offset="1" style="stop-color:#433545"/>
				</radialGradient>
				<path fill="url(#SVGID_26_)" d="M611.506,120.332c-3.723-0.29-7.188,1.067-9.705,3.444l-28.244-10.632
					c-0.225,3.854-1.055,7.544-2.391,10.982l26.713,10.057c0.559,6.048,5.395,11,11.656,11.486
					c6.996,0.545,13.109-4.687,13.654-11.682C623.734,126.99,618.506,120.877,611.506,120.332z"/>
			</g>
		</g>
	</g>
	<g>
		<radialGradient id="SVGID_27_" cx="709.2949" cy="81.582" r="16.554" gradientUnits="userSpaceOnUse">
			<stop  offset="0" style="stop-color:#867278"/>
			<stop  offset="0.5" style="stop-color:#5C4A56"/>
			<stop  offset="1" style="stop-color:#433545"/>
		</radialGradient>
		<path fill="url(#SVGID_27_)" d="M695.846,100.744V62.42h11.451c2.557,0,4.734,0.199,6.535,0.594
			c1.838,0.396,3.422,1.063,4.756,1.999c1.332,0.938,2.357,2.206,3.078,3.808c0.719,1.604,1.078,3.557,1.078,5.861
			c0,1.891-0.359,3.583-1.078,5.077c-0.721,1.495-1.721,2.773-3,3.835c-1.295,1.081-2.818,1.9-4.563,2.459
			c-1.783,0.575-3.629,0.863-5.537,0.863h-3.295v13.828H695.846z M705.271,70.549v8.238h2.701c1.729,0,3.061-0.36,3.996-1.08
			c0.92-0.703,1.377-1.729,1.377-3.079c0-1.314-0.457-2.323-1.377-3.025c-0.936-0.701-2.268-1.054-3.996-1.054H705.271z"/>
		<radialGradient id="SVGID_28_" cx="728.7949" cy="81.5957" r="13.9418" gradientUnits="userSpaceOnUse">
			<stop  offset="0" style="stop-color:#867278"/>
			<stop  offset="0.5" style="stop-color:#5C4A56"/>
			<stop  offset="1" style="stop-color:#433545"/>
		</radialGradient>
		<path fill="url(#SVGID_28_)" d="M724.096,62.447h9.398v38.297l-9.398-0.027V62.447z"/>
		<radialGradient id="SVGID_29_" cx="751.0771" cy="81.5415" r="18.2352" gradientUnits="userSpaceOnUse">
			<stop  offset="0" style="stop-color:#867278"/>
			<stop  offset="0.5" style="stop-color:#5C4A56"/>
			<stop  offset="1" style="stop-color:#433545"/>
		</radialGradient>
		<path fill="url(#SVGID_29_)" d="M767.309,95.505c-1.227,1.332-2.594,2.467-4.105,3.402c-2.881,1.783-6.031,2.674-9.453,2.674
			c-3.402,0-6.555-0.891-9.453-2.674c-2.916-1.8-5.221-4.221-6.914-7.265c-1.691-3.061-2.537-6.419-2.537-10.074
			c0-3.673,0.846-7.039,2.537-10.101c1.693-3.043,3.998-5.474,6.914-7.292c2.898-1.782,6.051-2.674,9.453-2.674
			c3.422,0,6.572,0.892,9.453,2.674c1.512,0.937,2.863,2.053,4.053,3.349l-6.188,6.401c-0.773-0.919-1.52-1.61-2.24-2.08
			c-1.586-1.062-3.277-1.593-5.078-1.593s-3.494,0.531-5.076,1.593c-1.549,1.063-2.783,2.468-3.701,4.214
			c-0.9,1.765-1.35,3.601-1.35,5.509c0,1.909,0.459,3.745,1.377,5.51c0.918,1.746,2.15,3.15,3.699,4.213s3.232,1.594,5.051,1.594
			s3.502-0.531,5.051-1.594c0.828-0.558,1.602-1.287,2.322-2.187L767.309,95.505z"/>
		<radialGradient id="SVGID_30_" cx="782.7695" cy="81.582" r="16.8273" gradientUnits="userSpaceOnUse">
			<stop  offset="0" style="stop-color:#867278"/>
			<stop  offset="0.5" style="stop-color:#5C4A56"/>
			<stop  offset="1" style="stop-color:#433545"/>
		</radialGradient>
		<path fill="url(#SVGID_30_)" d="M778.383,71.144h-7.375l-2.35-8.724h25.955l2.268,8.724h-9.102v29.601h-9.396V71.144z"/>
		<radialGradient id="SVGID_31_" cx="678.0967" cy="140.4453" r="16.6901" gradientUnits="userSpaceOnUse">
			<stop  offset="0" style="stop-color:#867278"/>
			<stop  offset="0.5" style="stop-color:#5C4A56"/>
			<stop  offset="1" style="stop-color:#433545"/>
		</radialGradient>
		<path fill="url(#SVGID_31_)" d="M685.092,131.412c-1.117-1.063-2.098-1.811-2.943-2.242c-0.902-0.469-1.945-0.702-3.133-0.702
			c-0.883,0-1.711,0.279-2.486,0.837c-0.811,0.559-1.215,1.297-1.215,2.216c0,1.295,0.883,2.321,2.646,3.078
			c1.803,0.774,3.646,1.521,5.537,2.241c1.908,0.756,3.564,1.954,4.969,3.592c1.387,1.657,2.08,4.088,2.08,7.293
			c0,4.104-1.232,7.256-3.701,9.452c-2.447,2.215-5.572,3.321-9.371,3.321c-2.197,0-4.32-0.377-6.373-1.134
			c-2.072-0.757-3.889-1.891-5.455-3.402l5.078-7.238c1.619,2.053,3.754,3.078,6.4,3.078c1.063,0,2.078-0.297,3.053-0.891
			c0.953-0.576,1.43-1.422,1.43-2.539c0-1.313-0.891-2.358-2.674-3.133c-0.791-0.342-1.711-0.729-2.754-1.161l-1.404-0.566
			l-1.434-0.595c-1.926-0.793-3.572-1.99-4.941-3.592c-1.367-1.585-2.053-3.952-2.053-7.104c0-2.412,0.594-4.519,1.783-6.32
			c1.15-1.782,2.691-3.15,4.617-4.104c1.873-0.936,3.881-1.404,6.023-1.404c1.982,0,3.924,0.378,5.834,1.135
			c1.945,0.792,3.646,1.891,5.104,3.294L685.092,131.412z"/>
		<radialGradient id="SVGID_32_" cx="707.374" cy="140.4453" r="17.4167" gradientUnits="userSpaceOnUse">
			<stop  offset="0" style="stop-color:#867278"/>
			<stop  offset="0.5" style="stop-color:#5C4A56"/>
			<stop  offset="1" style="stop-color:#433545"/>
		</radialGradient>
		<path fill="url(#SVGID_32_)" d="M701.297,159.607h-9.398v-38.324h9.398v13.99h12.152v-13.99h9.4v38.324h-9.4v-15.664h-12.152
			V159.607z"/>
		<radialGradient id="SVGID_33_" cx="745.3047" cy="140.1758" r="20.2858" gradientUnits="userSpaceOnUse">
			<stop  offset="0" style="stop-color:#867278"/>
			<stop  offset="0.5" style="stop-color:#5C4A56"/>
			<stop  offset="1" style="stop-color:#433545"/>
		</radialGradient>
		<path fill="url(#SVGID_33_)" d="M752.963,152.802h-15.316l-3.752,6.806h-9.695l21.119-38.863l21.092,38.863h-9.695
			L752.963,152.802z M749.072,145.726l-3.754-6.806l-3.781,6.806H749.072z"/>
		<radialGradient id="SVGID_34_" cx="782.4404" cy="140.4321" r="17.0609" gradientUnits="userSpaceOnUse">
			<stop  offset="0" style="stop-color:#867278"/>
			<stop  offset="0.5" style="stop-color:#5C4A56"/>
			<stop  offset="1" style="stop-color:#433545"/>
		</radialGradient>
		<path fill="url(#SVGID_34_)" d="M767.762,159.526v-38.243h10.668c3.025,0,5.699,0.396,8.021,1.188
			c2.285,0.774,4.078,2.044,5.375,3.808c1.279,1.766,1.916,4.043,1.916,6.834c0,2.053-0.557,4.015-1.674,5.888
			c-1.098,1.854-2.584,3.133-4.457,3.835l9.508,16.745h-10.992l-8.857-17.178h-0.109v17.123H767.762z M777.16,140.136
			c1.584,0,2.898-0.189,3.943-0.568c1.008-0.341,1.811-0.944,2.404-1.809c0.559-0.829,0.838-1.9,0.838-3.214
			c0-1.98-0.594-3.331-1.783-4.052c-1.207-0.719-3.008-1.08-5.402-1.08V140.136z"/>
		<radialGradient id="SVGID_35_" cx="810.6357" cy="140.4453" r="16.0503" gradientUnits="userSpaceOnUse">
			<stop  offset="0" style="stop-color:#867278"/>
			<stop  offset="0.5" style="stop-color:#5C4A56"/>
			<stop  offset="1" style="stop-color:#433545"/>
		</radialGradient>
		<path fill="url(#SVGID_35_)" d="M822.803,159.607h-24.334v-38.324h24.334v8.13h-14.936v6.644h7.59l2.188,8.076h-9.777v7.399
			h14.936V159.607z"/>
	</g>
</g>
<g>
	<path d="M645.646,513.731c0,5.109-4.143,9.251-9.252,9.251H487.898c-5.109,0-9.251-4.142-9.251-9.251V365.236
		c0-5.109,4.142-9.252,9.251-9.252h148.496c5.109,0,9.252,4.143,9.252,9.252V513.731z"/>
	<g>
		<path stroke="#FFFFFF" stroke-width="2" stroke-miterlimit="10" d="M573.557,437.34c-0.225-3.854-1.055-7.544-2.391-10.982
			c-5.262-13.547-18.415-23.154-33.821-23.154c-20.036,0-36.28,16.244-36.28,36.281s16.244,36.279,36.28,36.279
			c15.407,0,28.562-9.607,33.821-23.154c1.336-3.438,2.166-7.129,2.391-10.982c0.043-0.709,0.068-1.422,0.068-2.143
			S573.6,438.05,573.557,437.34z"/>
		<path fill="#FFFFFF" d="M531.034,431.894l12.476,23.89l6.111-9.197c1.873-2.816,4.91-2.816,6.785,0l8.084,12.162
			c3.865-5.438,6.146-12.082,6.146-19.264c0-18.388-14.904-33.293-33.292-33.293s-33.292,14.905-33.292,33.293
			c0,6.543,1.895,12.639,5.154,17.785l13.252-25.376C524.826,427.361,528.666,427.361,531.034,431.894z M553.014,432.68
			c2.291,0,4.148,1.856,4.148,4.148c0,2.291-1.857,4.148-4.148,4.148s-4.148-1.857-4.148-4.148
			C548.865,434.536,550.723,432.68,553.014,432.68z"/>
		<g>
			<path fill="#FFFFFF" d="M601.801,426.708c2.518,2.378,5.982,3.733,9.707,3.444c6.998-0.545,12.227-6.658,11.682-13.656
				c-0.543-6.994-6.656-12.227-13.654-11.682c-6.262,0.487-11.096,5.438-11.656,11.487l-26.713,10.056
				c1.336,3.438,2.166,7.129,2.391,10.982L601.801,426.708z"/>
			<path fill="#FFFFFF" d="M611.506,448.814c-3.723-0.289-7.188,1.068-9.705,3.445l-28.244-10.633
				c-0.225,3.854-1.055,7.545-2.391,10.982l26.713,10.057c0.559,6.049,5.395,11,11.656,11.486
				c6.996,0.545,13.109-4.686,13.654-11.682C623.734,455.473,618.506,449.361,611.506,448.814z"/>
		</g>
	</g>
</g>
<g>
	<radialGradient id="SVGID_36_" cx="708.2363" cy="410.0654" r="16.554" gradientUnits="userSpaceOnUse">
		<stop  offset="0" style="stop-color:#867278"/>
		<stop  offset="0.5" style="stop-color:#5C4A56"/>
		<stop  offset="1" style="stop-color:#433545"/>
	</radialGradient>
	<path fill="url(#SVGID_36_)" d="M694.787,429.228v-38.324h11.451c2.557,0,4.734,0.199,6.535,0.594
		c1.838,0.396,3.422,1.063,4.756,1.999c1.332,0.938,2.357,2.206,3.078,3.808c0.719,1.604,1.078,3.557,1.078,5.861
		c0,1.891-0.359,3.583-1.078,5.077c-0.721,1.495-1.721,2.773-3,3.835c-1.295,1.081-2.818,1.9-4.563,2.459
		c-1.783,0.575-3.629,0.863-5.537,0.863h-3.295v13.828H694.787z M704.213,399.032v8.238h2.701c1.729,0,3.061-0.36,3.996-1.08
		c0.92-0.703,1.377-1.729,1.377-3.079c0-1.314-0.457-2.323-1.377-3.025c-0.936-0.701-2.268-1.054-3.996-1.054H704.213z"/>
	<radialGradient id="SVGID_37_" cx="727.7363" cy="410.0791" r="13.9418" gradientUnits="userSpaceOnUse">
		<stop  offset="0" style="stop-color:#867278"/>
		<stop  offset="0.5" style="stop-color:#5C4A56"/>
		<stop  offset="1" style="stop-color:#433545"/>
	</radialGradient>
	<path fill="url(#SVGID_37_)" d="M723.037,390.931h9.398v38.297l-9.398-0.027V390.931z"/>
	<radialGradient id="SVGID_38_" cx="750.0186" cy="410.0254" r="18.2349" gradientUnits="userSpaceOnUse">
		<stop  offset="0" style="stop-color:#867278"/>
		<stop  offset="0.5" style="stop-color:#5C4A56"/>
		<stop  offset="1" style="stop-color:#433545"/>
	</radialGradient>
	<path fill="url(#SVGID_38_)" d="M766.25,423.988c-1.227,1.332-2.594,2.467-4.105,3.402c-2.881,1.783-6.031,2.674-9.453,2.674
		c-3.402,0-6.555-0.891-9.453-2.674c-2.916-1.8-5.221-4.221-6.914-7.265c-1.691-3.061-2.537-6.419-2.537-10.074
		c0-3.673,0.846-7.039,2.537-10.101c1.693-3.043,3.998-5.474,6.914-7.292c2.898-1.782,6.051-2.674,9.453-2.674
		c3.422,0,6.572,0.892,9.453,2.674c1.512,0.937,2.863,2.053,4.053,3.349l-6.188,6.401c-0.773-0.919-1.52-1.61-2.24-2.08
		c-1.586-1.062-3.277-1.593-5.078-1.593s-3.494,0.531-5.076,1.593c-1.549,1.063-2.783,2.468-3.701,4.214
		c-0.9,1.765-1.35,3.601-1.35,5.509c0,1.909,0.459,3.745,1.377,5.51c0.918,1.746,2.15,3.15,3.699,4.213s3.232,1.594,5.051,1.594
		s3.502-0.531,5.051-1.594c0.828-0.558,1.602-1.287,2.322-2.187L766.25,423.988z"/>
	<radialGradient id="SVGID_39_" cx="781.7109" cy="410.0654" r="16.8273" gradientUnits="userSpaceOnUse">
		<stop  offset="0" style="stop-color:#867278"/>
		<stop  offset="0.5" style="stop-color:#5C4A56"/>
		<stop  offset="1" style="stop-color:#433545"/>
	</radialGradient>
	<path fill="url(#SVGID_39_)" d="M777.324,399.627h-7.375l-2.35-8.724h25.955l2.268,8.724h-9.102v29.601h-9.396V399.627z"/>
	<radialGradient id="SVGID_40_" cx="678.0967" cy="468.9287" r="16.6901" gradientUnits="userSpaceOnUse">
		<stop  offset="0" style="stop-color:#867278"/>
		<stop  offset="0.5" style="stop-color:#5C4A56"/>
		<stop  offset="1" style="stop-color:#433545"/>
	</radialGradient>
	<path fill="url(#SVGID_40_)" d="M685.092,459.896c-1.117-1.063-2.098-1.811-2.943-2.242c-0.902-0.469-1.945-0.702-3.133-0.702
		c-0.883,0-1.711,0.279-2.486,0.837c-0.811,0.559-1.215,1.297-1.215,2.216c0,1.295,0.883,2.321,2.646,3.078
		c1.803,0.774,3.646,1.521,5.537,2.241c1.908,0.756,3.564,1.954,4.969,3.592c1.387,1.657,2.08,4.088,2.08,7.293
		c0,4.104-1.232,7.256-3.701,9.452c-2.447,2.215-5.572,3.321-9.371,3.321c-2.197,0-4.32-0.377-6.373-1.134
		c-2.072-0.757-3.889-1.891-5.455-3.402l5.078-7.238c1.619,2.053,3.754,3.078,6.4,3.078c1.063,0,2.078-0.297,3.053-0.891
		c0.953-0.576,1.43-1.422,1.43-2.539c0-1.313-0.891-2.358-2.674-3.133c-0.791-0.342-1.711-0.729-2.754-1.161l-1.404-0.566
		l-1.434-0.595c-1.926-0.793-3.572-1.99-4.941-3.592c-1.367-1.585-2.053-3.952-2.053-7.104c0-2.412,0.594-4.519,1.783-6.32
		c1.15-1.782,2.691-3.15,4.617-4.104c1.873-0.936,3.881-1.404,6.023-1.404c1.982,0,3.924,0.378,5.834,1.135
		c1.945,0.792,3.646,1.891,5.104,3.294L685.092,459.896z"/>
	<radialGradient id="SVGID_41_" cx="707.374" cy="468.9287" r="17.4167" gradientUnits="userSpaceOnUse">
		<stop  offset="0" style="stop-color:#867278"/>
		<stop  offset="0.5" style="stop-color:#5C4A56"/>
		<stop  offset="1" style="stop-color:#433545"/>
	</radialGradient>
	<path fill="url(#SVGID_41_)" d="M701.297,488.091h-9.398v-38.324h9.398v13.99h12.152v-13.99h9.4v38.324h-9.4v-15.664h-12.152
		V488.091z"/>
	<radialGradient id="SVGID_42_" cx="745.3047" cy="468.6592" r="20.2858" gradientUnits="userSpaceOnUse">
		<stop  offset="0" style="stop-color:#867278"/>
		<stop  offset="0.5" style="stop-color:#5C4A56"/>
		<stop  offset="1" style="stop-color:#433545"/>
	</radialGradient>
	<path fill="url(#SVGID_42_)" d="M752.963,481.285h-15.316l-3.752,6.806h-9.695l21.119-38.863l21.092,38.863h-9.695L752.963,481.285
		z M749.072,474.209l-3.754-6.806l-3.781,6.806H749.072z"/>
	<radialGradient id="SVGID_43_" cx="782.4404" cy="468.916" r="17.0606" gradientUnits="userSpaceOnUse">
		<stop  offset="0" style="stop-color:#867278"/>
		<stop  offset="0.5" style="stop-color:#5C4A56"/>
		<stop  offset="1" style="stop-color:#433545"/>
	</radialGradient>
	<path fill="url(#SVGID_43_)" d="M767.762,488.01v-38.243h10.668c3.025,0,5.699,0.396,8.021,1.188
		c2.285,0.774,4.078,2.044,5.375,3.808c1.279,1.766,1.916,4.043,1.916,6.834c0,2.053-0.557,4.015-1.674,5.888
		c-1.098,1.854-2.584,3.133-4.457,3.835l9.508,16.745h-10.992l-8.857-17.178h-0.109v17.123H767.762z M777.16,468.619
		c1.584,0,2.898-0.189,3.943-0.568c1.008-0.341,1.811-0.944,2.404-1.809c0.559-0.829,0.838-1.9,0.838-3.214
		c0-1.98-0.594-3.331-1.783-4.052c-1.207-0.719-3.008-1.08-5.402-1.08V468.619z"/>
	<radialGradient id="SVGID_44_" cx="810.6357" cy="468.9287" r="16.0503" gradientUnits="userSpaceOnUse">
		<stop  offset="0" style="stop-color:#867278"/>
		<stop  offset="0.5" style="stop-color:#5C4A56"/>
		<stop  offset="1" style="stop-color:#433545"/>
	</radialGradient>
	<path fill="url(#SVGID_44_)" d="M822.803,488.091h-24.334v-38.324h24.334v8.13h-14.936v6.644h7.59l2.188,8.076h-9.777v7.399h14.936
		V488.091z"/>
</g>
<g>
	<radialGradient id="SVGID_45_" cx="79.2222" cy="763.7861" r="55.1609" gradientUnits="userSpaceOnUse">
		<stop  offset="0" style="stop-color:#867278"/>
		<stop  offset="0.5" style="stop-color:#5C4A56"/>
		<stop  offset="1" style="stop-color:#433545"/>
	</radialGradient>
	<path fill="none" stroke="url(#SVGID_45_)" stroke-width="3.761" stroke-miterlimit="10" d="M132.402,760.639
		c-0.33-5.66-1.549-11.078-3.511-16.129c-7.728-19.895-27.044-34.004-49.669-34.004c-29.424,0-53.28,23.855-53.28,53.281
		c0,29.428,23.856,53.279,53.28,53.279c22.627,0,41.945-14.109,49.669-34.004c1.962-5.047,3.181-10.469,3.511-16.129
		c0.063-1.041,0.1-2.088,0.1-3.146C132.502,762.73,132.465,761.682,132.402,760.639z"/>
	<radialGradient id="SVGID_46_" cx="79.2227" cy="753.4863" r="44.0438" gradientUnits="userSpaceOnUse">
		<stop  offset="0" style="stop-color:#867278"/>
		<stop  offset="0.5" style="stop-color:#5C4A56"/>
		<stop  offset="1" style="stop-color:#433545"/>
	</radialGradient>
	<path fill="url(#SVGID_46_)" d="M69.955,752.641l18.322,35.084l8.975-13.508c2.751-4.135,7.211-4.135,9.964,0l11.872,17.861
		c5.676-7.986,9.027-17.744,9.027-28.291c0-27.002-21.888-48.893-48.892-48.893c-27.003,0-48.892,21.891-48.892,48.893
		c0,9.609,2.782,18.563,7.569,26.119l19.461-37.266C60.838,745.984,66.477,745.984,69.955,752.641z M102.233,753.795
		c3.364,0,6.092,2.727,6.092,6.092s-2.728,6.092-6.092,6.092c-3.365,0-6.092-2.727-6.092-6.092S98.869,753.795,102.233,753.795z"/>
	<g>
		<radialGradient id="SVGID_47_" cx="167.1201" cy="736.7266" r="31.8842" gradientUnits="userSpaceOnUse">
			<stop  offset="0" style="stop-color:#867278"/>
			<stop  offset="0.5" style="stop-color:#5C4A56"/>
			<stop  offset="1" style="stop-color:#433545"/>
		</radialGradient>
		<path fill="url(#SVGID_47_)" d="M173.881,745.025c3.697,3.492,8.786,5.482,14.255,5.059c10.277-0.801,17.956-9.779,17.155-20.057
			c-0.797-10.271-9.775-17.955-20.052-17.154c-9.196,0.715-16.295,7.984-17.118,16.869l-39.229,14.768
			c1.962,5.051,3.181,10.469,3.511,16.129L173.881,745.025z"/>
		<radialGradient id="SVGID_48_" cx="167.1201" cy="790.8457" r="31.8842" gradientUnits="userSpaceOnUse">
			<stop  offset="0" style="stop-color:#867278"/>
			<stop  offset="0.5" style="stop-color:#5C4A56"/>
			<stop  offset="1" style="stop-color:#433545"/>
		</radialGradient>
		<path fill="url(#SVGID_48_)" d="M188.133,777.49c-5.467-0.426-10.555,1.568-14.252,5.059l-41.479-15.615
			c-0.33,5.66-1.549,11.082-3.511,16.129l39.229,14.77c0.82,8.883,7.922,16.154,17.118,16.869
			c10.274,0.799,19.252-6.881,20.052-17.156C206.092,787.268,198.414,778.293,188.133,777.49z"/>
	</g>
</g>
<g>
	<radialGradient id="SVGID_49_" cx="256.7852" cy="742.5869" r="11.9286" gradientUnits="userSpaceOnUse">
		<stop  offset="0" style="stop-color:#867278"/>
		<stop  offset="0.5" style="stop-color:#5C4A56"/>
		<stop  offset="1" style="stop-color:#433545"/>
	</radialGradient>
	<path fill="url(#SVGID_49_)" d="M247.093,756.395v-27.615h8.252c1.842,0,3.412,0.143,4.71,0.428
		c1.323,0.285,2.465,0.766,3.426,1.439c0.96,0.676,1.7,1.59,2.219,2.744c0.519,1.156,0.777,2.563,0.777,4.225
		c0,1.361-0.259,2.58-0.777,3.658c-0.519,1.076-1.239,1.998-2.161,2.764c-0.934,0.779-2.031,1.369-3.289,1.771
		c-1.284,0.414-2.614,0.623-3.989,0.623h-2.374v9.963H247.093z M253.886,734.637v5.936h1.946c1.245,0,2.205-0.26,2.88-0.777
		c0.662-0.508,0.992-1.246,0.992-2.219c0-0.947-0.33-1.674-0.992-2.18c-0.675-0.506-1.635-0.76-2.88-0.76H253.886z"/>
	<radialGradient id="SVGID_50_" cx="270.8369" cy="742.5967" r="10.0461" gradientUnits="userSpaceOnUse">
		<stop  offset="0" style="stop-color:#867278"/>
		<stop  offset="0.5" style="stop-color:#5C4A56"/>
		<stop  offset="1" style="stop-color:#433545"/>
	</radialGradient>
	<path fill="url(#SVGID_50_)" d="M267.451,728.799h6.772v27.596l-6.772-0.018V728.799z"/>
	<radialGradient id="SVGID_51_" cx="286.8936" cy="742.5576" r="13.1404" gradientUnits="userSpaceOnUse">
		<stop  offset="0" style="stop-color:#867278"/>
		<stop  offset="0.5" style="stop-color:#5C4A56"/>
		<stop  offset="1" style="stop-color:#433545"/>
	</radialGradient>
	<path fill="url(#SVGID_51_)" d="M298.59,752.619c-0.883,0.961-1.869,1.779-2.958,2.453c-2.076,1.285-4.347,1.926-6.812,1.926
		c-2.452,0-4.724-0.641-6.813-1.926c-2.102-1.297-3.763-3.043-4.982-5.236c-1.22-2.205-1.829-4.625-1.829-7.258
		c0-2.648,0.609-5.074,1.829-7.279c1.22-2.193,2.881-3.945,4.982-5.256c2.089-1.283,4.36-1.926,6.813-1.926
		c2.465,0,4.735,0.643,6.812,1.926c1.089,0.676,2.063,1.48,2.92,2.414l-4.458,4.613c-0.558-0.662-1.096-1.162-1.614-1.5
		c-1.143-0.766-2.362-1.146-3.659-1.146c-1.298,0-2.519,0.381-3.659,1.146c-1.115,0.766-2.005,1.779-2.666,3.037
		c-0.649,1.271-0.973,2.594-0.973,3.971c0,1.375,0.33,2.697,0.991,3.969c0.662,1.26,1.551,2.271,2.666,3.037
		c1.117,0.766,2.33,1.148,3.641,1.148c1.31,0,2.523-0.383,3.64-1.148c0.597-0.402,1.154-0.928,1.673-1.576L298.59,752.619z"/>
	<radialGradient id="SVGID_52_" cx="309.7324" cy="742.5869" r="12.1258" gradientUnits="userSpaceOnUse">
		<stop  offset="0" style="stop-color:#867278"/>
		<stop  offset="0.5" style="stop-color:#5C4A56"/>
		<stop  offset="1" style="stop-color:#433545"/>
	</radialGradient>
	<path fill="url(#SVGID_52_)" d="M306.571,735.064h-5.314l-1.693-6.285h18.704l1.635,6.285h-6.559v21.33h-6.772V735.064z"/>
	<radialGradient id="SVGID_53_" cx="234.3208" cy="785.0049" r="12.0272" gradientUnits="userSpaceOnUse">
		<stop  offset="0" style="stop-color:#867278"/>
		<stop  offset="0.5" style="stop-color:#5C4A56"/>
		<stop  offset="1" style="stop-color:#433545"/>
	</radialGradient>
	<path fill="url(#SVGID_53_)" d="M239.361,778.496c-0.805-0.766-1.512-1.305-2.121-1.615c-0.649-0.338-1.401-0.508-2.258-0.508
		c-0.636,0-1.232,0.201-1.791,0.604c-0.584,0.402-0.876,0.936-0.876,1.598c0,0.934,0.637,1.672,1.908,2.217
		c1.298,0.559,2.627,1.098,3.989,1.615c1.376,0.545,2.569,1.408,3.581,2.59c0.999,1.193,1.499,2.945,1.499,5.254
		c0,2.959-0.889,5.229-2.667,6.813c-1.764,1.596-4.016,2.393-6.753,2.393c-1.584,0-3.114-0.271-4.593-0.816
		c-1.493-0.545-2.803-1.363-3.932-2.453l3.659-5.215c1.168,1.479,2.705,2.219,4.612,2.219c0.766,0,1.498-0.215,2.2-0.643
		c0.688-0.416,1.03-1.025,1.03-1.83c0-0.945-0.642-1.699-1.927-2.258c-0.57-0.246-1.233-0.523-1.984-0.836l-1.013-0.408
		l-1.032-0.428c-1.388-0.572-2.574-1.436-3.561-2.59c-0.986-1.141-1.479-2.848-1.479-5.119c0-1.738,0.428-3.256,1.284-4.553
		c0.83-1.285,1.939-2.271,3.328-2.959c1.35-0.674,2.797-1.012,4.341-1.012c1.428,0,2.827,0.273,4.204,0.818
		c1.401,0.57,2.627,1.361,3.678,2.373L239.361,778.496z"/>
	<radialGradient id="SVGID_54_" cx="255.4185" cy="785.0049" r="12.5502" gradientUnits="userSpaceOnUse">
		<stop  offset="0" style="stop-color:#867278"/>
		<stop  offset="0.5" style="stop-color:#5C4A56"/>
		<stop  offset="1" style="stop-color:#433545"/>
	</radialGradient>
	<path fill="url(#SVGID_54_)" d="M251.04,798.813h-6.773v-27.615h6.773v10.08h8.757v-10.08h6.773v27.615h-6.773v-11.287h-8.757
		V798.813z"/>
	<radialGradient id="SVGID_55_" cx="282.7524" cy="784.8105" r="14.6182" gradientUnits="userSpaceOnUse">
		<stop  offset="0" style="stop-color:#867278"/>
		<stop  offset="0.5" style="stop-color:#5C4A56"/>
		<stop  offset="1" style="stop-color:#433545"/>
	</radialGradient>
	<path fill="url(#SVGID_55_)" d="M288.271,793.908h-11.036l-2.704,4.904h-6.987l15.22-28.004l15.199,28.004h-6.986L288.271,793.908z
		 M285.468,788.811l-2.705-4.904l-2.725,4.904H285.468z"/>
	<radialGradient id="SVGID_56_" cx="309.5132" cy="784.9961" r="12.2942" gradientUnits="userSpaceOnUse">
		<stop  offset="0" style="stop-color:#867278"/>
		<stop  offset="0.5" style="stop-color:#5C4A56"/>
		<stop  offset="1" style="stop-color:#433545"/>
	</radialGradient>
	<path fill="url(#SVGID_56_)" d="M298.936,798.756v-27.559h7.688c2.18,0,4.107,0.285,5.78,0.855
		c1.647,0.559,2.939,1.473,3.873,2.744c0.922,1.271,1.382,2.914,1.382,4.924c0,1.48-0.402,2.895-1.206,4.244
		c-0.792,1.336-1.862,2.258-3.212,2.764l6.851,12.066h-7.921l-6.383-12.379h-0.079v12.34H298.936z M305.708,784.781
		c1.142,0,2.089-0.137,2.842-0.408c0.727-0.246,1.305-0.682,1.732-1.305c0.402-0.596,0.604-1.369,0.604-2.314
		c0-1.428-0.428-2.4-1.284-2.92c-0.87-0.52-2.168-0.779-3.894-0.779V784.781z"/>
	<radialGradient id="SVGID_57_" cx="329.8315" cy="785.0049" r="11.5657" gradientUnits="userSpaceOnUse">
		<stop  offset="0" style="stop-color:#867278"/>
		<stop  offset="0.5" style="stop-color:#5C4A56"/>
		<stop  offset="1" style="stop-color:#433545"/>
	</radialGradient>
	<path fill="url(#SVGID_57_)" d="M338.6,798.813h-17.536v-27.615H338.6v5.857h-10.763v4.787h5.469l1.576,5.82h-7.045v5.332H338.6
		V798.813z"/>
</g>
<g>
	<radialGradient id="SVGID_58_" cx="531.9287" cy="763.7861" r="55.1611" gradientUnits="userSpaceOnUse">
		<stop  offset="0" style="stop-color:#867278"/>
		<stop  offset="0.5" style="stop-color:#5C4A56"/>
		<stop  offset="1" style="stop-color:#433545"/>
	</radialGradient>
	<path fill="none" stroke="url(#SVGID_58_)" stroke-width="3.761" stroke-miterlimit="10" d="M585.107,760.639
		c-0.33-5.66-1.549-11.078-3.51-16.129c-7.729-19.895-27.045-34.004-49.67-34.004c-29.424,0-53.279,23.855-53.279,53.281
		c0,29.428,23.855,53.279,53.279,53.279c22.627,0,41.945-14.109,49.67-34.004c1.961-5.047,3.18-10.469,3.51-16.129
		c0.064-1.041,0.102-2.088,0.102-3.146C585.209,762.73,585.172,761.682,585.107,760.639z"/>
	<radialGradient id="SVGID_59_" cx="531.9287" cy="753.4863" r="44.0438" gradientUnits="userSpaceOnUse">
		<stop  offset="0" style="stop-color:#867278"/>
		<stop  offset="0.5" style="stop-color:#5C4A56"/>
		<stop  offset="1" style="stop-color:#433545"/>
	</radialGradient>
	<path fill="url(#SVGID_59_)" d="M522.66,752.641l18.322,35.084l8.975-13.508c2.75-4.135,7.211-4.135,9.965,0l11.871,17.861
		c5.676-7.986,9.027-17.744,9.027-28.291c0-27.002-21.889-48.893-48.893-48.893s-48.891,21.891-48.891,48.893
		c0,9.609,2.781,18.563,7.568,26.119l19.461-37.266C513.543,745.984,519.184,745.984,522.66,752.641z M554.939,753.795
		c3.363,0,6.092,2.727,6.092,6.092s-2.729,6.092-6.092,6.092c-3.365,0-6.092-2.727-6.092-6.092S551.574,753.795,554.939,753.795z"/>
	<g>
		<radialGradient id="SVGID_60_" cx="619.8262" cy="736.7266" r="31.8842" gradientUnits="userSpaceOnUse">
			<stop  offset="0" style="stop-color:#867278"/>
			<stop  offset="0.5" style="stop-color:#5C4A56"/>
			<stop  offset="1" style="stop-color:#433545"/>
		</radialGradient>
		<path fill="url(#SVGID_60_)" d="M626.586,745.025c3.697,3.492,8.787,5.482,14.256,5.059c10.277-0.801,17.955-9.779,17.156-20.057
			c-0.799-10.271-9.775-17.955-20.053-17.154c-9.195,0.715-16.295,7.984-17.119,16.869l-39.229,14.768
			c1.961,5.051,3.18,10.469,3.51,16.129L626.586,745.025z"/>
		<radialGradient id="SVGID_61_" cx="619.8262" cy="790.8457" r="31.8842" gradientUnits="userSpaceOnUse">
			<stop  offset="0" style="stop-color:#867278"/>
			<stop  offset="0.5" style="stop-color:#5C4A56"/>
			<stop  offset="1" style="stop-color:#433545"/>
		</radialGradient>
		<path fill="url(#SVGID_61_)" d="M640.84,777.49c-5.467-0.426-10.557,1.568-14.254,5.059l-41.479-15.615
			c-0.33,5.66-1.549,11.082-3.51,16.129l39.229,14.77c0.82,8.883,7.924,16.154,17.119,16.869
			c10.273,0.799,19.252-6.881,20.053-17.156C658.797,787.268,651.119,778.293,640.84,777.49z"/>
	</g>
</g>
<g>
	<radialGradient id="SVGID_62_" cx="690.332" cy="763.8008" r="17.3109" gradientUnits="userSpaceOnUse">
		<stop  offset="0" style="stop-color:#867278"/>
		<stop  offset="0.5" style="stop-color:#5C4A56"/>
		<stop  offset="1" style="stop-color:#433545"/>
	</radialGradient>
	<path fill="url(#SVGID_62_)" d="M676.267,783.839v-40.076h11.975c2.674,0,4.952,0.207,6.835,0.621
		c1.921,0.414,3.577,1.111,4.971,2.09c1.394,0.979,2.467,2.307,3.22,3.982s1.13,3.719,1.13,6.129c0,1.977-0.377,3.747-1.13,5.31
		s-1.798,2.899-3.135,4.01c-1.355,1.13-2.947,1.987-4.773,2.57c-1.863,0.603-3.794,0.904-5.789,0.904h-3.446v14.46H676.267z
		 M686.123,752.264v8.613h2.824c1.808,0,3.201-0.376,4.181-1.129c0.96-0.734,1.44-1.808,1.44-3.22c0-1.374-0.48-2.429-1.44-3.163
		c-0.979-0.734-2.373-1.102-4.181-1.102H686.123z"/>
	<radialGradient id="SVGID_63_" cx="710.7227" cy="763.8145" r="14.5795" gradientUnits="userSpaceOnUse">
		<stop  offset="0" style="stop-color:#867278"/>
		<stop  offset="0.5" style="stop-color:#5C4A56"/>
		<stop  offset="1" style="stop-color:#433545"/>
	</radialGradient>
	<path fill="url(#SVGID_63_)" d="M705.809,743.79h9.828v40.049l-9.828-0.028V743.79z"/>
	<radialGradient id="SVGID_64_" cx="734.0234" cy="763.7578" r="19.0696" gradientUnits="userSpaceOnUse">
		<stop  offset="0" style="stop-color:#867278"/>
		<stop  offset="0.5" style="stop-color:#5C4A56"/>
		<stop  offset="1" style="stop-color:#433545"/>
	</radialGradient>
	<path fill="url(#SVGID_64_)" d="M750.997,778.359c-1.281,1.394-2.712,2.58-4.293,3.559c-3.013,1.864-6.309,2.797-9.886,2.797
		c-3.559,0-6.854-0.933-9.885-2.797c-3.05-1.882-5.46-4.415-7.229-7.597c-1.771-3.201-2.655-6.712-2.655-10.535
		c0-3.841,0.885-7.361,2.655-10.563c1.77-3.182,4.18-5.724,7.229-7.626c3.031-1.863,6.326-2.796,9.885-2.796
		c3.577,0,6.873,0.933,9.886,2.796c1.581,0.979,2.993,2.146,4.236,3.503l-6.468,6.693c-0.81-0.961-1.592-1.686-2.344-2.175
		c-1.657-1.111-3.428-1.666-5.311-1.666s-3.652,0.555-5.31,1.666c-1.619,1.111-2.908,2.58-3.869,4.406
		c-0.941,1.845-1.412,3.766-1.412,5.761c0,1.996,0.48,3.917,1.44,5.762c0.96,1.826,2.25,3.295,3.869,4.406s3.38,1.666,5.281,1.666
		c1.902,0,3.662-0.555,5.282-1.666c0.865-0.584,1.675-1.346,2.429-2.288L750.997,778.359z"/>
	<radialGradient id="SVGID_65_" cx="767.166" cy="763.8008" r="17.5967" gradientUnits="userSpaceOnUse">
		<stop  offset="0" style="stop-color:#867278"/>
		<stop  offset="0.5" style="stop-color:#5C4A56"/>
		<stop  offset="1" style="stop-color:#433545"/>
	</radialGradient>
	<path fill="url(#SVGID_65_)" d="M762.576,752.885h-7.71l-2.457-9.122h27.142l2.372,9.122h-9.518v30.954h-9.829V752.885z"/>
	<radialGradient id="SVGID_66_" cx="796.3555" cy="763.8008" r="17.4533" gradientUnits="userSpaceOnUse">
		<stop  offset="0" style="stop-color:#867278"/>
		<stop  offset="0.5" style="stop-color:#5C4A56"/>
		<stop  offset="1" style="stop-color:#433545"/>
	</radialGradient>
	<path fill="url(#SVGID_66_)" d="M803.67,754.354c-1.168-1.111-2.193-1.893-3.078-2.345c-0.942-0.489-2.034-0.734-3.276-0.734
		c-0.923,0-1.789,0.293-2.599,0.876c-0.848,0.584-1.271,1.355-1.271,2.315c0,1.356,0.922,2.43,2.768,3.22
		c1.883,0.811,3.813,1.592,5.79,2.345c1.995,0.791,3.728,2.043,5.196,3.756c1.449,1.732,2.175,4.274,2.175,7.626
		c0,4.293-1.29,7.588-3.869,9.885c-2.562,2.316-5.828,3.474-9.801,3.474c-2.297,0-4.519-0.396-6.665-1.186
		c-2.165-0.791-4.067-1.978-5.705-3.559l5.31-7.569c1.694,2.146,3.926,3.22,6.693,3.22c1.111,0,2.175-0.311,3.191-0.932
		c0.998-0.603,1.497-1.487,1.497-2.655c0-1.374-0.932-2.467-2.796-3.276c-0.829-0.357-1.789-0.763-2.881-1.214l-1.469-0.594
		l-1.497-0.621c-2.015-0.828-3.737-2.08-5.168-3.756c-1.432-1.657-2.146-4.133-2.146-7.429c0-2.522,0.621-4.726,1.864-6.608
		c1.204-1.864,2.814-3.295,4.829-4.293c1.958-0.979,4.058-1.469,6.298-1.469c2.071,0,4.104,0.396,6.101,1.187
		c2.034,0.828,3.813,1.977,5.338,3.445L803.67,754.354z"/>
	<radialGradient id="SVGID_67_" cx="826.9707" cy="763.8008" r="18.2127" gradientUnits="userSpaceOnUse">
		<stop  offset="0" style="stop-color:#867278"/>
		<stop  offset="0.5" style="stop-color:#5C4A56"/>
		<stop  offset="1" style="stop-color:#433545"/>
	</radialGradient>
	<path fill="url(#SVGID_67_)" d="M820.615,783.839h-9.828v-40.076h9.828v14.629h12.71v-14.629h9.828v40.076h-9.828v-16.381h-12.71
		V783.839z"/>
	<radialGradient id="SVGID_68_" cx="866.6367" cy="763.5176" r="21.2148" gradientUnits="userSpaceOnUse">
		<stop  offset="0" style="stop-color:#867278"/>
		<stop  offset="0.5" style="stop-color:#5C4A56"/>
		<stop  offset="1" style="stop-color:#433545"/>
	</radialGradient>
	<path fill="url(#SVGID_68_)" d="M874.645,776.722H858.63l-3.925,7.117h-10.14l22.086-40.642l22.058,40.642h-10.14L874.645,776.722z
		 M870.577,769.322l-3.926-7.117l-3.954,7.117H870.577z"/>
	<radialGradient id="SVGID_69_" cx="905.4707" cy="763.7871" r="17.8407" gradientUnits="userSpaceOnUse">
		<stop  offset="0" style="stop-color:#867278"/>
		<stop  offset="0.5" style="stop-color:#5C4A56"/>
		<stop  offset="1" style="stop-color:#433545"/>
	</radialGradient>
	<path fill="url(#SVGID_69_)" d="M890.121,783.754v-39.991h11.156c3.163,0,5.959,0.414,8.388,1.242
		c2.391,0.81,4.265,2.138,5.62,3.982c1.337,1.846,2.006,4.227,2.006,7.146c0,2.146-0.584,4.199-1.751,6.157
		c-1.149,1.939-2.702,3.275-4.66,4.01l9.941,17.511h-11.495l-9.264-17.962h-0.113v17.905H890.121z M899.949,763.476
		c1.657,0,3.031-0.197,4.124-0.593c1.054-0.357,1.892-0.988,2.514-1.893c0.583-0.865,0.875-1.986,0.875-3.36
		c0-2.071-0.621-3.483-1.863-4.236c-1.262-0.753-3.146-1.13-5.649-1.13V763.476z"/>
	<radialGradient id="SVGID_70_" cx="934.957" cy="763.8008" r="16.7842" gradientUnits="userSpaceOnUse">
		<stop  offset="0" style="stop-color:#867278"/>
		<stop  offset="0.5" style="stop-color:#5C4A56"/>
		<stop  offset="1" style="stop-color:#433545"/>
	</radialGradient>
	<path fill="url(#SVGID_70_)" d="M947.681,783.839h-25.447v-40.076h25.447v8.501h-15.619v6.947h7.937l2.288,8.444h-10.225v7.739
		h15.619V783.839z"/>
</g>
<g>
	<g>
		<radialGradient id="SVGID_71_" cx="266.6294" cy="943.6738" r="55.1609" gradientUnits="userSpaceOnUse">
			<stop  offset="0" style="stop-color:#867278"/>
			<stop  offset="0.5" style="stop-color:#5C4A56"/>
			<stop  offset="1" style="stop-color:#433545"/>
		</radialGradient>
		<path fill="none" stroke="url(#SVGID_71_)" stroke-width="3.761" stroke-miterlimit="10" d="M319.81,940.526
			c-0.33-5.66-1.549-11.078-3.511-16.129c-7.728-19.895-27.044-34.004-49.669-34.004c-29.424,0-53.28,23.855-53.28,53.281
			c0,29.428,23.856,53.279,53.28,53.279c22.627,0,41.945-14.109,49.669-34.004c1.962-5.047,3.181-10.469,3.511-16.129
			c0.063-1.041,0.1-2.088,0.1-3.146C319.91,942.618,319.873,941.569,319.81,940.526z"/>
		<radialGradient id="SVGID_72_" cx="266.6299" cy="933.374" r="44.0438" gradientUnits="userSpaceOnUse">
			<stop  offset="0" style="stop-color:#867278"/>
			<stop  offset="0.5" style="stop-color:#5C4A56"/>
			<stop  offset="1" style="stop-color:#433545"/>
		</radialGradient>
		<path fill="url(#SVGID_72_)" d="M257.362,932.528l18.322,35.084l8.975-13.508c2.751-4.135,7.211-4.135,9.964,0l11.872,17.861
			c5.676-7.986,9.027-17.744,9.027-28.291c0-27.002-21.888-48.893-48.892-48.893c-27.003,0-48.892,21.891-48.892,48.893
			c0,9.609,2.782,18.563,7.569,26.119l19.461-37.266C248.245,925.872,253.884,925.872,257.362,932.528z M289.641,933.683
			c3.364,0,6.092,2.727,6.092,6.092s-2.728,6.092-6.092,6.092c-3.365,0-6.092-2.727-6.092-6.092S286.276,933.683,289.641,933.683z"
			/>
		<g>
			<radialGradient id="SVGID_73_" cx="354.5273" cy="916.6152" r="31.8839" gradientUnits="userSpaceOnUse">
				<stop  offset="0" style="stop-color:#867278"/>
				<stop  offset="0.5" style="stop-color:#5C4A56"/>
				<stop  offset="1" style="stop-color:#433545"/>
			</radialGradient>
			<path fill="url(#SVGID_73_)" d="M361.288,924.913c3.697,3.492,8.786,5.482,14.255,5.059c10.277-0.801,17.956-9.779,17.155-20.057
				c-0.797-10.271-9.775-17.955-20.052-17.154c-9.196,0.715-16.295,7.984-17.118,16.869l-39.229,14.768
				c1.962,5.051,3.181,10.469,3.511,16.129L361.288,924.913z"/>
			<radialGradient id="SVGID_74_" cx="354.5273" cy="970.7334" r="31.8842" gradientUnits="userSpaceOnUse">
				<stop  offset="0" style="stop-color:#867278"/>
				<stop  offset="0.5" style="stop-color:#5C4A56"/>
				<stop  offset="1" style="stop-color:#433545"/>
			</radialGradient>
			<path fill="url(#SVGID_74_)" d="M375.541,957.378c-5.467-0.426-10.555,1.568-14.252,5.059l-41.479-15.615
				c-0.33,5.66-1.549,11.082-3.511,16.129l39.229,14.77c0.82,8.883,7.922,16.154,17.118,16.869
				c10.274,0.799,19.252-6.881,20.052-17.156C393.499,967.155,385.821,958.181,375.541,957.378z"/>
		</g>
	</g>
	<g>
		<radialGradient id="SVGID_75_" cx="248.9395" cy="1033.165" r="11.9286" gradientUnits="userSpaceOnUse">
			<stop  offset="0" style="stop-color:#867278"/>
			<stop  offset="0.5" style="stop-color:#5C4A56"/>
			<stop  offset="1" style="stop-color:#433545"/>
		</radialGradient>
		<path fill="url(#SVGID_75_)" d="M239.248,1046.973v-27.615h8.252c1.842,0,3.412,0.143,4.71,0.428
			c1.323,0.285,2.465,0.766,3.426,1.439c0.96,0.676,1.7,1.59,2.219,2.744c0.519,1.156,0.777,2.563,0.777,4.225
			c0,1.361-0.259,2.58-0.777,3.658c-0.519,1.076-1.239,1.998-2.161,2.764c-0.934,0.779-2.031,1.369-3.289,1.771
			c-1.284,0.414-2.614,0.623-3.989,0.623h-2.374v9.963H239.248z M246.041,1025.215v5.936h1.946c1.245,0,2.205-0.26,2.88-0.777
			c0.662-0.508,0.992-1.246,0.992-2.219c0-0.947-0.33-1.674-0.992-2.18c-0.675-0.506-1.635-0.76-2.88-0.76H246.041z"/>
		<radialGradient id="SVGID_76_" cx="262.9912" cy="1033.1748" r="10.0461" gradientUnits="userSpaceOnUse">
			<stop  offset="0" style="stop-color:#867278"/>
			<stop  offset="0.5" style="stop-color:#5C4A56"/>
			<stop  offset="1" style="stop-color:#433545"/>
		</radialGradient>
		<path fill="url(#SVGID_76_)" d="M259.605,1019.377h6.772v27.596l-6.772-0.018V1019.377z"/>
		<radialGradient id="SVGID_77_" cx="279.0479" cy="1033.1357" r="13.1404" gradientUnits="userSpaceOnUse">
			<stop  offset="0" style="stop-color:#867278"/>
			<stop  offset="0.5" style="stop-color:#5C4A56"/>
			<stop  offset="1" style="stop-color:#433545"/>
		</radialGradient>
		<path fill="url(#SVGID_77_)" d="M290.745,1043.197c-0.883,0.961-1.869,1.779-2.958,2.453c-2.076,1.285-4.347,1.926-6.812,1.926
			c-2.452,0-4.724-0.641-6.813-1.926c-2.102-1.297-3.763-3.043-4.982-5.236c-1.22-2.205-1.829-4.625-1.829-7.258
			c0-2.648,0.609-5.074,1.829-7.279c1.22-2.193,2.881-3.945,4.982-5.256c2.089-1.283,4.36-1.926,6.813-1.926
			c2.465,0,4.735,0.643,6.812,1.926c1.089,0.676,2.063,1.48,2.92,2.414l-4.458,4.613c-0.558-0.662-1.096-1.162-1.614-1.5
			c-1.143-0.766-2.362-1.146-3.659-1.146c-1.298,0-2.519,0.381-3.659,1.146c-1.115,0.766-2.005,1.779-2.666,3.037
			c-0.649,1.271-0.973,2.594-0.973,3.971c0,1.375,0.33,2.697,0.991,3.969c0.662,1.26,1.551,2.271,2.666,3.037
			c1.117,0.766,2.33,1.148,3.641,1.148c1.31,0,2.523-0.383,3.64-1.148c0.597-0.402,1.154-0.928,1.673-1.576L290.745,1043.197z"/>
		<radialGradient id="SVGID_78_" cx="301.8867" cy="1033.165" r="12.1258" gradientUnits="userSpaceOnUse">
			<stop  offset="0" style="stop-color:#867278"/>
			<stop  offset="0.5" style="stop-color:#5C4A56"/>
			<stop  offset="1" style="stop-color:#433545"/>
		</radialGradient>
		<path fill="url(#SVGID_78_)" d="M298.725,1025.643h-5.314l-1.693-6.285h18.704l1.635,6.285h-6.559v21.33h-6.772V1025.643z"/>
		<radialGradient id="SVGID_79_" cx="226.4751" cy="1075.583" r="12.0272" gradientUnits="userSpaceOnUse">
			<stop  offset="0" style="stop-color:#867278"/>
			<stop  offset="0.5" style="stop-color:#5C4A56"/>
			<stop  offset="1" style="stop-color:#433545"/>
		</radialGradient>
		<path fill="url(#SVGID_79_)" d="M231.516,1069.074c-0.805-0.766-1.512-1.305-2.121-1.615c-0.649-0.338-1.401-0.508-2.258-0.508
			c-0.636,0-1.232,0.201-1.791,0.604c-0.584,0.402-0.876,0.936-0.876,1.598c0,0.934,0.637,1.672,1.908,2.217
			c1.298,0.559,2.627,1.098,3.989,1.615c1.376,0.545,2.569,1.408,3.581,2.59c0.999,1.193,1.499,2.945,1.499,5.254
			c0,2.959-0.889,5.229-2.667,6.813c-1.764,1.596-4.016,2.393-6.753,2.393c-1.584,0-3.114-0.271-4.593-0.816
			c-1.493-0.545-2.803-1.363-3.932-2.453l3.659-5.215c1.168,1.479,2.705,2.219,4.612,2.219c0.766,0,1.498-0.215,2.2-0.643
			c0.688-0.416,1.03-1.025,1.03-1.83c0-0.945-0.642-1.699-1.927-2.258c-0.57-0.246-1.233-0.523-1.984-0.836l-1.013-0.408
			l-1.032-0.428c-1.388-0.572-2.574-1.436-3.561-2.59c-0.986-1.141-1.479-2.848-1.479-5.119c0-1.738,0.428-3.256,1.284-4.553
			c0.83-1.285,1.939-2.271,3.328-2.959c1.35-0.674,2.797-1.012,4.341-1.012c1.428,0,2.827,0.273,4.204,0.818
			c1.401,0.57,2.627,1.361,3.678,2.373L231.516,1069.074z"/>
		<radialGradient id="SVGID_80_" cx="247.5728" cy="1075.583" r="12.5502" gradientUnits="userSpaceOnUse">
			<stop  offset="0" style="stop-color:#867278"/>
			<stop  offset="0.5" style="stop-color:#5C4A56"/>
			<stop  offset="1" style="stop-color:#433545"/>
		</radialGradient>
		<path fill="url(#SVGID_80_)" d="M243.194,1089.391h-6.773v-27.615h6.773v10.08h8.757v-10.08h6.773v27.615h-6.773v-11.287h-8.757
			V1089.391z"/>
		<radialGradient id="SVGID_81_" cx="274.9067" cy="1075.3887" r="14.6182" gradientUnits="userSpaceOnUse">
			<stop  offset="0" style="stop-color:#867278"/>
			<stop  offset="0.5" style="stop-color:#5C4A56"/>
			<stop  offset="1" style="stop-color:#433545"/>
		</radialGradient>
		<path fill="url(#SVGID_81_)" d="M280.425,1084.486h-11.036l-2.704,4.904h-6.987l15.22-28.004l15.199,28.004h-6.986
			L280.425,1084.486z M277.622,1079.389l-2.705-4.904l-2.725,4.904H277.622z"/>
		<radialGradient id="SVGID_82_" cx="301.6675" cy="1075.5742" r="12.2942" gradientUnits="userSpaceOnUse">
			<stop  offset="0" style="stop-color:#867278"/>
			<stop  offset="0.5" style="stop-color:#5C4A56"/>
			<stop  offset="1" style="stop-color:#433545"/>
		</radialGradient>
		<path fill="url(#SVGID_82_)" d="M291.09,1089.334v-27.559h7.688c2.18,0,4.107,0.285,5.78,0.855
			c1.647,0.559,2.939,1.473,3.873,2.744c0.922,1.271,1.382,2.914,1.382,4.924c0,1.48-0.402,2.895-1.206,4.244
			c-0.792,1.336-1.862,2.258-3.212,2.764l6.851,12.066h-7.921l-6.383-12.379h-0.079v12.34H291.09z M297.862,1075.359
			c1.142,0,2.089-0.137,2.842-0.408c0.727-0.246,1.305-0.682,1.732-1.305c0.402-0.596,0.604-1.369,0.604-2.314
			c0-1.428-0.428-2.4-1.284-2.92c-0.87-0.52-2.168-0.779-3.894-0.779V1075.359z"/>
		<radialGradient id="SVGID_83_" cx="321.9858" cy="1075.583" r="11.5657" gradientUnits="userSpaceOnUse">
			<stop  offset="0" style="stop-color:#867278"/>
			<stop  offset="0.5" style="stop-color:#5C4A56"/>
			<stop  offset="1" style="stop-color:#433545"/>
		</radialGradient>
		<path fill="url(#SVGID_83_)" d="M330.754,1089.391h-17.536v-27.615h17.536v5.857h-10.763v4.787h5.469l1.576,5.82h-7.045v5.332
			h10.763V1089.391z"/>
	</g>
</g>
<g>
	<g>
		<radialGradient id="SVGID_84_" cx="566.585" cy="955.626" r="55.1611" gradientUnits="userSpaceOnUse">
			<stop  offset="0" style="stop-color:#867278"/>
			<stop  offset="0.5" style="stop-color:#5C4A56"/>
			<stop  offset="1" style="stop-color:#433545"/>
		</radialGradient>
		<path fill="none" stroke="url(#SVGID_84_)" stroke-width="3.761" stroke-miterlimit="10" d="M619.764,952.479
			c-0.33-5.66-1.549-11.078-3.51-16.129c-7.729-19.895-27.045-34.004-49.67-34.004c-29.424,0-53.279,23.855-53.279,53.281
			c0,29.428,23.855,53.279,53.279,53.279c22.627,0,41.945-14.109,49.67-34.004c1.961-5.047,3.18-10.469,3.51-16.129
			c0.064-1.041,0.102-2.088,0.102-3.146C619.865,954.57,619.828,953.521,619.764,952.479z"/>
		<radialGradient id="SVGID_85_" cx="566.585" cy="945.3262" r="44.0438" gradientUnits="userSpaceOnUse">
			<stop  offset="0" style="stop-color:#867278"/>
			<stop  offset="0.5" style="stop-color:#5C4A56"/>
			<stop  offset="1" style="stop-color:#433545"/>
		</radialGradient>
		<path fill="url(#SVGID_85_)" d="M557.316,944.48l18.322,35.084l8.975-13.508c2.75-4.135,7.211-4.135,9.965,0l11.871,17.861
			c5.676-7.986,9.027-17.744,9.027-28.291c0-27.002-21.889-48.893-48.893-48.893s-48.891,21.891-48.891,48.893
			c0,9.609,2.781,18.563,7.568,26.119l19.461-37.266C548.199,937.824,553.84,937.824,557.316,944.48z M589.596,945.635
			c3.363,0,6.092,2.727,6.092,6.092s-2.729,6.092-6.092,6.092c-3.365,0-6.092-2.727-6.092-6.092S586.23,945.635,589.596,945.635z"/>
		<g>
			<radialGradient id="SVGID_86_" cx="654.4824" cy="928.5664" r="31.8842" gradientUnits="userSpaceOnUse">
				<stop  offset="0" style="stop-color:#867278"/>
				<stop  offset="0.5" style="stop-color:#5C4A56"/>
				<stop  offset="1" style="stop-color:#433545"/>
			</radialGradient>
			<path fill="url(#SVGID_86_)" d="M661.242,936.865c3.697,3.492,8.787,5.482,14.256,5.059c10.277-0.801,17.955-9.779,17.156-20.057
				c-0.799-10.271-9.775-17.955-20.053-17.154c-9.195,0.715-16.295,7.984-17.119,16.869l-39.229,14.768
				c1.961,5.051,3.18,10.469,3.51,16.129L661.242,936.865z"/>
			<radialGradient id="SVGID_87_" cx="654.4824" cy="982.6855" r="31.8842" gradientUnits="userSpaceOnUse">
				<stop  offset="0" style="stop-color:#867278"/>
				<stop  offset="0.5" style="stop-color:#5C4A56"/>
				<stop  offset="1" style="stop-color:#433545"/>
			</radialGradient>
			<path fill="url(#SVGID_87_)" d="M675.496,969.33c-5.467-0.426-10.557,1.568-14.254,5.059l-41.479-15.615
				c-0.33,5.66-1.549,11.082-3.51,16.129l39.229,14.77c0.82,8.883,7.924,16.154,17.119,16.869
				c10.273,0.799,19.252-6.881,20.053-17.156C693.453,979.107,685.775,970.133,675.496,969.33z"/>
		</g>
	</g>
	<g>
		<radialGradient id="SVGID_88_" cx="481.3662" cy="1057.1113" r="17.3113" gradientUnits="userSpaceOnUse">
			<stop  offset="0" style="stop-color:#867278"/>
			<stop  offset="0.5" style="stop-color:#5C4A56"/>
			<stop  offset="1" style="stop-color:#433545"/>
		</radialGradient>
		<path fill="url(#SVGID_88_)" d="M467.301,1077.149v-40.076h11.975c2.674,0,4.953,0.207,6.836,0.621
			c1.92,0.414,3.576,1.111,4.971,2.09c1.393,0.979,2.467,2.307,3.219,3.982c0.754,1.676,1.131,3.719,1.131,6.129
			c0,1.977-0.377,3.747-1.131,5.31c-0.752,1.563-1.797,2.899-3.135,4.01c-1.355,1.13-2.947,1.987-4.773,2.57
			c-1.863,0.603-3.793,0.904-5.789,0.904h-3.445v14.46H467.301z M477.158,1045.574v8.613h2.824c1.807,0,3.201-0.376,4.18-1.129
			c0.961-0.734,1.441-1.808,1.441-3.22c0-1.374-0.48-2.429-1.441-3.163c-0.979-0.734-2.373-1.102-4.18-1.102H477.158z"/>
		<radialGradient id="SVGID_89_" cx="501.7578" cy="1057.125" r="14.5795" gradientUnits="userSpaceOnUse">
			<stop  offset="0" style="stop-color:#867278"/>
			<stop  offset="0.5" style="stop-color:#5C4A56"/>
			<stop  offset="1" style="stop-color:#433545"/>
		</radialGradient>
		<path fill="url(#SVGID_89_)" d="M496.844,1037.101h9.828v40.049l-9.828-0.028V1037.101z"/>
		<radialGradient id="SVGID_90_" cx="525.0576" cy="1057.0684" r="19.0696" gradientUnits="userSpaceOnUse">
			<stop  offset="0" style="stop-color:#867278"/>
			<stop  offset="0.5" style="stop-color:#5C4A56"/>
			<stop  offset="1" style="stop-color:#433545"/>
		</radialGradient>
		<path fill="url(#SVGID_90_)" d="M542.031,1071.67c-1.281,1.394-2.711,2.58-4.293,3.559c-3.012,1.864-6.309,2.797-9.885,2.797
			c-3.559,0-6.854-0.933-9.885-2.797c-3.051-1.882-5.461-4.415-7.23-7.597c-1.77-3.201-2.654-6.712-2.654-10.535
			c0-3.841,0.885-7.361,2.654-10.563c1.77-3.182,4.18-5.724,7.23-7.626c3.031-1.863,6.326-2.796,9.885-2.796
			c3.576,0,6.873,0.933,9.885,2.796c1.582,0.979,2.994,2.146,4.236,3.503l-6.467,6.693c-0.811-0.961-1.592-1.686-2.344-2.175
			c-1.658-1.111-3.428-1.666-5.311-1.666s-3.652,0.555-5.311,1.666c-1.619,1.111-2.908,2.58-3.869,4.406
			c-0.941,1.845-1.412,3.766-1.412,5.761c0,1.996,0.48,3.917,1.441,5.762c0.959,1.826,2.25,3.295,3.869,4.406
			s3.379,1.666,5.281,1.666s3.662-0.555,5.281-1.666c0.865-0.584,1.676-1.346,2.43-2.288L542.031,1071.67z"/>
		<radialGradient id="SVGID_91_" cx="558.2002" cy="1057.1113" r="17.5967" gradientUnits="userSpaceOnUse">
			<stop  offset="0" style="stop-color:#867278"/>
			<stop  offset="0.5" style="stop-color:#5C4A56"/>
			<stop  offset="1" style="stop-color:#433545"/>
		</radialGradient>
		<path fill="url(#SVGID_91_)" d="M553.611,1046.195H545.9l-2.457-9.122h27.143l2.371,9.122h-9.518v30.954h-9.828V1046.195z"/>
		<radialGradient id="SVGID_92_" cx="587.3896" cy="1057.1113" r="17.4537" gradientUnits="userSpaceOnUse">
			<stop  offset="0" style="stop-color:#867278"/>
			<stop  offset="0.5" style="stop-color:#5C4A56"/>
			<stop  offset="1" style="stop-color:#433545"/>
		</radialGradient>
		<path fill="url(#SVGID_92_)" d="M594.705,1047.664c-1.168-1.111-2.193-1.893-3.078-2.345c-0.943-0.489-2.035-0.734-3.277-0.734
			c-0.922,0-1.789,0.293-2.598,0.876c-0.848,0.584-1.271,1.355-1.271,2.315c0,1.356,0.922,2.43,2.768,3.22
			c1.883,0.811,3.813,1.592,5.791,2.345c1.994,0.791,3.727,2.043,5.195,3.756c1.449,1.732,2.176,4.274,2.176,7.626
			c0,4.293-1.291,7.588-3.869,9.885c-2.563,2.316-5.828,3.474-9.801,3.474c-2.297,0-4.52-0.396-6.666-1.186
			c-2.164-0.791-4.066-1.978-5.705-3.559l5.311-7.569c1.693,2.146,3.926,3.22,6.693,3.22c1.111,0,2.174-0.311,3.191-0.932
			c0.998-0.603,1.496-1.487,1.496-2.655c0-1.374-0.932-2.467-2.795-3.276c-0.83-0.357-1.789-0.763-2.881-1.214l-1.469-0.594
			l-1.498-0.621c-2.014-0.828-3.736-2.08-5.168-3.756c-1.432-1.657-2.146-4.133-2.146-7.429c0-2.522,0.621-4.726,1.865-6.608
			c1.203-1.864,2.814-3.295,4.828-4.293c1.959-0.979,4.059-1.469,6.299-1.469c2.07,0,4.104,0.396,6.1,1.187
			c2.035,0.828,3.814,1.977,5.338,3.445L594.705,1047.664z"/>
		<radialGradient id="SVGID_93_" cx="618.0049" cy="1057.1113" r="18.2127" gradientUnits="userSpaceOnUse">
			<stop  offset="0" style="stop-color:#867278"/>
			<stop  offset="0.5" style="stop-color:#5C4A56"/>
			<stop  offset="1" style="stop-color:#433545"/>
		</radialGradient>
		<path fill="url(#SVGID_93_)" d="M611.65,1077.149h-9.828v-40.076h9.828v14.629h12.709v-14.629h9.828v40.076h-9.828v-16.381H611.65
			V1077.149z"/>
		<radialGradient id="SVGID_94_" cx="657.6719" cy="1056.8281" r="21.2148" gradientUnits="userSpaceOnUse">
			<stop  offset="0" style="stop-color:#867278"/>
			<stop  offset="0.5" style="stop-color:#5C4A56"/>
			<stop  offset="1" style="stop-color:#433545"/>
		</radialGradient>
		<path fill="url(#SVGID_94_)" d="M665.68,1070.032h-16.016l-3.924,7.117H635.6l22.086-40.642l22.059,40.642h-10.141
			L665.68,1070.032z M661.611,1062.633l-3.926-7.117l-3.953,7.117H661.611z"/>
		<radialGradient id="SVGID_95_" cx="696.5059" cy="1057.0977" r="17.8402" gradientUnits="userSpaceOnUse">
			<stop  offset="0" style="stop-color:#867278"/>
			<stop  offset="0.5" style="stop-color:#5C4A56"/>
			<stop  offset="1" style="stop-color:#433545"/>
		</radialGradient>
		<path fill="url(#SVGID_95_)" d="M681.156,1077.064v-39.991h11.156c3.162,0,5.959,0.414,8.387,1.242
			c2.391,0.81,4.266,2.138,5.621,3.982c1.336,1.846,2.006,4.227,2.006,7.146c0,2.146-0.584,4.199-1.752,6.157
			c-1.148,1.939-2.701,3.275-4.66,4.01l9.941,17.511h-11.494l-9.264-17.962h-0.113v17.905H681.156z M690.984,1056.786
			c1.656,0,3.031-0.197,4.123-0.593c1.055-0.357,1.893-0.988,2.514-1.893c0.584-0.865,0.875-1.986,0.875-3.36
			c0-2.071-0.621-3.483-1.863-4.236c-1.262-0.753-3.145-1.13-5.648-1.13V1056.786z"/>
		<radialGradient id="SVGID_96_" cx="725.9912" cy="1057.1113" r="16.7842" gradientUnits="userSpaceOnUse">
			<stop  offset="0" style="stop-color:#867278"/>
			<stop  offset="0.5" style="stop-color:#5C4A56"/>
			<stop  offset="1" style="stop-color:#433545"/>
		</radialGradient>
		<path fill="url(#SVGID_96_)" d="M738.715,1077.149h-25.447v-40.076h25.447v8.501h-15.619v6.947h7.938l2.287,8.444h-10.225v7.739
			h15.619V1077.149z"/>
	</g>
</g>
</svg>
