<svg xmlns="http://www.w3.org/2000/svg" xml:space="preserve" style="fill-rule:evenodd;clip-rule:evenodd;stroke-linejoin:round;stroke-miterlimit:2" viewBox="0 0 318.8 194"><circle cx="97" cy="97" r="97" style="fill:url(#a)"/><path d="M97.3 6.8c50 0 90.5 40.3 90.5 90s-40.5 90-90.5 90-90.5-40.3-90.5-90 40.5-90 90.5-90Zm69.8 140.7a85.2 85.2 0 0 0 16.6-50.6A86.2 86.2 0 0 0 97.3 11 86.2 86.2 0 0 0 11 96.9c0 17 5 32.8 13.5 46.2 36.3-67.4 36.2-74.7 45.3-74.7 8.8 0 10.3 7.6 43.3 71.4 16.7-25.9 18.9-30.4 24.3-30.4 6.7 0 8 5 29.7 38Zm-29.3-68.2a10.6 10.6 0 1 1 0 21.2 10.6 10.6 0 0 1 0-21.2Z" style="fill:url(#b)"/><path d="M253 37.1a33 33 0 1 1 10.4 27l-69.7 26.1-6.4-28.5L253 37.1Z" style="fill:url(#c)"/><path d="M263.4 129.3a32.9 32.9 0 0 1 55.4 24.2 33 33 0 0 1-65.8 3.2l-65.6-24.8 6.4-28.9 69.6 26.3Z" style="fill:url(#d)"/><defs><radialGradient id="a" cx="0" cy="0" r="1" gradientTransform="matrix(79 0 0 -73 97.3 77.6)" gradientUnits="userSpaceOnUse"><stop offset="0" style="stop-color:#867278;stop-opacity:1"/><stop offset=".5" style="stop-color:#5c4955;stop-opacity:1"/><stop offset="1" style="stop-color:#433545;stop-opacity:1"/></radialGradient><radialGradient id="c" cx="0" cy="0" r="1" gradientTransform="matrix(55 0 0 -55 253 48.6)" gradientUnits="userSpaceOnUse"><stop offset="0" style="stop-color:#867278;stop-opacity:1"/><stop offset=".5" style="stop-color:#5c4955;stop-opacity:1"/><stop offset="1" style="stop-color:#433545;stop-opacity:1"/></radialGradient><radialGradient id="d" cx="0" cy="0" r="1" gradientTransform="matrix(55 0 0 -56 253.1 144.8)" gradientUnits="userSpaceOnUse"><stop offset="0" style="stop-color:#867278;stop-opacity:1"/><stop offset=".5" style="stop-color:#5c4955;stop-opacity:1"/><stop offset="1" style="stop-color:#433545;stop-opacity:1"/></radialGradient><linearGradient id="b" x1="0" x2="1" y1="0" y2="0" gradientTransform="matrix(97 0 0 97 53.6 97)" gradientUnits="userSpaceOnUse"><stop offset="0" style="stop-color:#40a1d4;stop-opacity:1"/><stop offset="1" style="stop-color:#2971c2;stop-opacity:1"/></linearGradient></defs></svg>